# xmcd
#
# Track frame offsets: 
#        150
#        21698
#        32651
#        46997
#        64687
#        92486
#        107457
#        128624
#        144360
#        158816
#
# Disc length: 2256 seconds
#
# Revision: 0
# Processed by: cddbd v1.5.2PL0 Copyright (c) Steve Scherf et al.
# Submitted via: ExactAudioCopy v0.95b3
#
DISCID=7a08ce0a
DTITLE=Danny Kalb and Stefan Grossman - Crosscurrents
DYEAR=1969
DGENRE=Folk Blues
TTITLE0=Devil Round The Moon
TTITLE1=Singing Songs Unsung
TTITLE2=Louise Louise
TTITLE3=Harvest Of Your Days
TTITLE4=Requiem For Patrick Kilroy
TTITLE5=Eagles On The Half
TTITLE6=Death Letter Blues
TTITLE7=Crow Black Squall
TTITLE8=Woman Dear
TTITLE9=Danish Drone
EXTD=
EXTT0=
EXTT1=
EXTT2=
EXTT3=
EXTT4=
EXTT5=
EXTT6=
EXTT7=
EXTT8=
EXTT9=
PLAYORDER=
